<svg xmlns="http://www.w3.org/2000/svg" width="141" height="144" viewBox="0 0 141 144">
<g>
<path d="M 79.32 133.97 C75.57,134.52 61.23,134.97 47.46,134.98 C23.46,135.00 22.24,134.91 17.97,132.75 C15.52,131.51 12.50,128.97 11.26,127.10 L 9.00 123.70 L 9.00 19.46 L 11.60 15.64 C15.94,9.25 17.37,9.00 49.92,9.00 C67.36,9.00 81.01,9.44 84.20,10.11 C88.90,11.10 97.62,14.84 106.50,19.69 C111.93,22.65 120.48,32.58 125.19,41.41 C132.74,55.51 134.95,74.38 130.54,86.90 C129.77,89.06 129.39,91.06 129.69,91.36 C130.52,92.19 122.28,106.94 118.16,112.00 C109.12,123.11 93.56,131.92 79.32,133.97 ZM 46.19 83.70 C49.91,85.85 56.05,84.63 59.20,81.11 C68.14,71.10 57.84,56.56 45.71,62.09 C38.04,65.58 38.34,79.16 46.19,83.70 ZM 19.71 83.31 C19.97,83.75 21.16,83.98 22.34,83.81 C24.05,83.56 24.57,82.71 24.81,79.75 C25.10,76.24 25.33,76.00 28.43,76.00 C33.13,76.00 37.00,72.67 37.00,68.62 C37.00,62.98 35.31,61.81 26.94,61.65 L 19.50 61.50 L 19.36 72.00 C19.29,77.78 19.44,82.86 19.71,83.31 ZM 69.83 84.33 C76.54,86.10 84.00,82.48 84.00,77.45 C84.00,74.35 79.59,70.33 75.29,69.53 C72.78,69.06 71.97,68.44 72.23,67.19 C72.61,65.37 77.22,65.24 77.83,67.03 C78.33,68.46 83.01,68.21 82.97,66.75 C82.84,61.66 72.13,58.87 68.12,62.88 C66.95,64.05 66.00,65.93 66.00,67.07 C66.00,69.54 67.72,73.00 68.95,73.00 C69.44,73.00 71.92,73.89 74.46,74.98 C78.60,76.76 78.97,77.18 78.01,78.98 C76.54,81.73 73.44,81.52 70.81,78.50 C68.39,75.71 66.21,75.28 65.39,77.42 C64.70,79.21 67.61,83.74 69.83,84.33 ZM 93.20 83.80 C93.86,84.46 94.67,85.00 95.00,85.00 C97.10,85.00 98.00,81.82 98.00,74.36 L 98.00 66.13 L 101.25 65.81 C103.73,65.57 104.50,65.03 104.50,63.50 C104.50,61.66 103.74,61.48 95.25,61.21 L 86.00 60.92 L 86.00 63.46 C86.00,65.62 86.45,66.00 89.00,66.00 L 92.00 66.00 L 92.00 74.30 C92.00,79.42 92.46,83.06 93.20,83.80 ZM 105.36 82.49 C105.80,83.64 107.63,84.00 113.04,84.00 C119.27,84.00 120.11,83.78 119.81,82.25 C119.61,81.19 118.39,80.37 116.74,80.18 C113.29,79.79 113.31,79.25 117.00,74.16 C118.65,71.88 120.00,69.56 120.00,69.01 C120.00,68.43 117.02,68.00 112.93,68.00 C106.74,68.00 105.90,68.22 106.19,69.74 C106.39,70.77 107.73,71.69 109.48,72.00 L 112.44 72.51 L 108.61 76.75 C106.30,79.31 105.01,81.58 105.36,82.49 ZM 54.78 79.44 C52.52,81.02 51.84,81.12 48.81,80.32 C46.56,79.73 44.67,73.77 45.51,69.94 C46.35,66.14 49.68,64.64 53.96,66.14 C56.83,67.14 57.00,67.49 57.00,72.54 C57.00,76.93 56.60,78.16 54.78,79.44 ZM 83.34 34.67 C85.08,36.44 86.72,37.87 87.00,37.87 C87.28,37.86 88.73,36.37 90.23,34.56 L 92.97 31.27 L 89.79 27.86 L 86.61 24.46 L 83.40 27.96 L 80.19 31.47 ZM 30.99 70.51 C30.31,71.33 28.69,72.00 27.38,72.00 C25.47,72.00 25.09,71.57 25.43,69.75 C25.66,68.51 25.88,67.16 25.93,66.75 C25.97,66.34 27.14,66.00 28.53,66.00 C31.48,66.00 32.77,68.37 30.99,70.51 ZM 69.96 40.45 C71.52,42.33 72.11,42.37 74.38,40.71 C76.03,39.50 76.01,39.32 74.04,37.53 C72.09,35.78 71.82,35.76 70.30,37.27 C68.96,38.61 68.90,39.17 69.96,40.45 Z" fill="rgb(27,27,27)"/>
<path d="M 28.06 66.01 C26.88,66.08 25.96,66.39 25.93,66.75 C25.88,67.16 25.66,68.51 25.43,69.75 C25.11,71.49 25.44,71.96 27.15,72.00 C26.12,72.04 25.16,71.83 24.67,71.33 C24.30,70.97 24.00,69.62 24.00,68.33 C24.00,66.33 24.50,66.00 27.53,66.00 C27.71,66.00 27.89,66.00 28.06,66.01 ZM 30.99 70.51 C30.85,70.68 30.69,70.83 30.50,70.97 C30.69,70.82 30.86,70.67 30.99,70.51 C31.97,69.33 32.02,68.09 31.37,67.20 C32.13,68.03 32.06,69.22 30.99,70.51 Z" fill="rgb(36,36,40)"/>
<path d="M 46.21 135.87 C26.34,136.57 21.70,137.00 20.71,138.25 C17.70,142.05 5.78,133.12 4.63,126.20 C3.64,120.18 3.91,18.80 4.93,15.24 C7.20,7.33 18.21,1.99 25.02,5.51 C26.60,6.33 29.05,7.00 30.45,7.00 C31.85,7.00 33.00,7.45 33.00,8.00 C33.00,8.64 41.32,9.00 55.95,9.00 C68.96,9.00 81.20,9.48 84.20,10.11 C81.01,9.44 67.36,9.00 49.92,9.00 C17.37,9.00 15.94,9.25 11.60,15.64 L 9.00 19.46 L 9.00 123.70 L 11.26 127.10 C12.50,128.97 15.52,131.51 17.97,132.75 C22.24,134.91 23.46,135.00 47.46,134.98 C57.13,134.97 67.08,134.75 73.45,134.43 C67.01,135.02 58.44,135.44 46.21,135.87 ZM 101.72 125.79 C108.11,122.03 113.87,117.27 118.16,112.00 C113.57,117.64 108.45,121.98 101.72,125.79 Z" fill="rgb(128,150,220)"/>
<path d="M 9.82 8.27 C11.45,6.74 13.31,5.37 15.20,4.40 C19.68,2.08 59.52,2.84 65.22,5.36 C67.26,6.26 70.30,7.00 71.97,7.00 C73.64,7.00 75.00,7.36 75.00,7.80 C75.00,8.23 78.19,9.14 82.09,9.81 C82.16,9.82 82.23,9.83 82.29,9.84 C77.56,9.35 67.04,9.00 55.95,9.00 C41.32,9.00 33.00,8.64 33.00,8.00 C33.00,7.45 31.85,7.00 30.45,7.00 C29.05,7.00 26.60,6.33 25.02,5.51 C20.54,3.20 14.25,4.71 9.82,8.27 ZM 46.21 135.87 C58.44,135.44 67.01,135.02 73.45,134.43 C75.70,134.31 77.51,134.19 78.69,134.05 C77.10,134.39 76.00,134.81 76.00,135.14 C76.00,135.61 74.25,136.00 72.12,136.00 C69.99,136.00 66.73,136.62 64.87,137.39 C61.06,138.96 30.64,139.85 19.58,139.02 C20.03,138.88 20.41,138.63 20.71,138.25 C21.70,137.00 26.34,136.57 46.21,135.87 ZM 107.90 121.81 C110.86,119.64 113.50,117.26 115.94,114.58 C114.34,116.35 112.66,118.07 111.58,118.98 C110.47,119.93 109.23,120.88 107.90,121.81 ZM 81.28 133.65 C83.69,133.20 86.12,132.57 88.54,131.78 C85.88,132.71 83.39,133.36 81.28,133.65 ZM 4.10 53.63 C4.24,33.49 4.52,16.68 4.92,15.29 C4.92,15.28 4.92,15.27 4.93,15.25 C4.52,16.75 4.24,33.53 4.10,53.63 ZM 94.56 13.79 C98.14,15.33 102.10,17.29 106.50,19.69 C102.35,17.43 98.24,15.40 94.56,13.79 ZM 13.61 137.37 C12.43,136.66 11.24,135.75 10.13,134.72 C11.25,135.74 12.44,136.64 13.61,137.37 Z" fill="rgb(151,162,227)"/>
<path d="M 79.32 133.97 C79.97,133.88 80.62,133.77 81.28,133.65 C83.39,133.36 85.88,132.71 88.54,131.78 C93.05,130.30 97.52,128.26 101.72,125.79 C103.94,124.53 105.99,123.21 107.90,121.81 C108.98,121.05 110.00,120.28 110.95,119.51 C110.71,119.71 110.48,119.90 110.26,120.08 C107.92,121.96 106.00,124.06 106.00,124.75 C106.00,125.44 105.21,126.04 104.25,126.08 C103.21,126.13 103.01,126.36 103.75,126.66 C104.53,126.98 103.49,128.56 100.91,130.97 C96.58,135.01 90.63,137.35 80.50,139.01 C72.71,140.28 31.35,140.19 19.23,139.10 C19.35,139.08 19.47,139.05 19.58,139.02 C30.64,139.85 61.06,138.96 64.87,137.39 C66.73,136.62 69.99,136.00 72.12,136.00 C74.25,136.00 76.00,135.61 76.00,135.14 C76.00,134.81 77.10,134.39 78.69,134.05 C78.93,134.03 79.13,134.00 79.32,133.97 ZM 94.56 13.79 C90.35,11.95 86.71,10.64 84.20,10.11 C83.76,10.02 83.11,9.93 82.29,9.84 C82.23,9.83 82.16,9.82 82.09,9.81 C78.19,9.14 75.00,8.23 75.00,7.80 C75.00,7.36 73.64,7.00 71.97,7.00 C70.30,7.00 67.26,6.26 65.22,5.36 C62.06,3.97 48.44,3.11 36.15,3.02 C39.26,3.01 42.86,3.00 47.07,3.00 C78.46,3.00 85.30,3.67 93.50,7.55 C99.35,10.33 106.32,16.73 105.58,18.66 C105.51,18.83 105.48,18.99 105.49,19.14 C101.49,16.99 97.86,15.21 94.56,13.79 ZM 16.28 4.04 C18.11,3.45 20.92,3.19 27.71,3.08 C22.61,3.22 18.40,3.53 16.28,4.04 ZM 4.10 53.63 C4.07,57.64 4.05,61.78 4.04,65.96 C4.12,40.83 4.41,17.05 4.88,15.43 C4.89,15.39 4.90,15.36 4.91,15.32 C4.51,16.91 4.23,33.62 4.10,53.63 ZM 107.38 20.21 C108.94,20.90 111.48,23.21 114.23,26.25 C111.81,23.65 109.42,21.52 107.38,20.21 ZM 114.26 116.38 C114.81,115.81 115.38,115.20 115.94,114.58 L 115.94 114.58 C116.70,113.75 117.44,112.89 118.16,112.00 C119.52,110.33 121.33,107.59 123.12,104.65 C121.38,107.52 119.61,110.22 118.23,111.96 C117.19,113.28 115.74,114.89 114.26,116.38 ZM 125.26 41.53 C128.34,47.32 130.52,53.91 131.72,60.53 C130.52,53.93 128.34,47.35 125.26,41.53 ZM 130.54 86.89 C133.13,79.55 133.43,70.02 131.72,60.55 C133.44,70.02 133.13,79.53 130.54,86.89 ZM 9.82 8.27 C9.61,8.43 9.41,8.60 9.21,8.78 C9.81,8.21 10.45,7.65 11.14,7.11 C10.68,7.48 10.24,7.87 9.82,8.27 ZM 15.62 138.43 C14.12,137.80 12.57,136.79 11.12,135.59 C11.93,136.26 12.77,136.87 13.61,137.37 C14.29,137.79 14.97,138.14 15.62,138.43 ZM 124.67 40.45 C124.83,40.74 124.99,41.03 125.15,41.32 C125.18,41.39 125.22,41.46 125.26,41.53 C125.24,41.49 125.22,41.45 125.19,41.41 C125.02,41.09 124.85,40.77 124.67,40.45 Z" fill="rgb(174,175,233)"/>
<path d="M 107.38 20.21 C107.08,20.02 106.78,19.85 106.50,19.69 C106.18,19.52 105.86,19.34 105.54,19.17 C105.48,18.99 105.51,18.83 105.58,18.66 C106.32,16.73 99.35,10.33 93.50,7.55 C90.15,5.97 87.02,4.92 82.36,4.23 C90.29,5.10 94.02,6.88 102.00,10.81 C111.36,15.42 123.99,27.58 128.69,36.50 C135.87,50.15 136.50,52.92 136.50,71.00 C136.50,85.69 136.25,88.20 134.20,93.89 C129.93,105.79 123.12,116.12 114.71,123.47 C108.93,128.53 96.27,135.27 88.00,137.69 C87.28,137.90 86.06,138.10 84.45,138.28 C92.24,136.68 97.17,134.45 100.91,130.97 C103.49,128.56 104.53,126.98 103.75,126.66 C103.01,126.36 103.21,126.13 104.25,126.08 C105.21,126.04 106.00,125.44 106.00,124.75 C106.00,124.06 107.92,121.96 110.26,120.08 C110.48,119.90 110.71,119.71 110.95,119.51 C111.16,119.33 111.37,119.16 111.58,118.98 C112.28,118.39 113.24,117.45 114.26,116.38 L 114.26 116.38 C115.74,114.89 117.19,113.28 118.23,111.96 C119.61,110.22 121.38,107.53 123.12,104.66 L 123.12 104.65 C126.74,98.70 130.24,91.91 129.69,91.36 C129.39,91.06 129.77,89.06 130.54,86.90 L 130.54 86.89 C130.57,86.81 130.59,86.74 130.62,86.66 C133.14,79.33 133.42,69.92 131.72,60.55 L 131.72 60.54 L 131.72 60.53 C131.70,60.43 131.68,60.32 131.66,60.21 C130.45,53.70 128.29,47.23 125.26,41.53 C125.22,41.46 125.18,41.39 125.15,41.32 C124.99,41.03 124.83,40.74 124.67,40.45 L 124.67 40.45 C121.90,35.51 118.02,30.31 114.23,26.25 C111.48,23.21 108.94,20.90 107.38,20.21 ZM 35.05 139.78 C28.08,139.71 22.20,139.50 18.83,139.15 C18.97,139.14 19.10,139.13 19.23,139.10 C22.65,139.41 28.39,139.64 35.05,139.78 ZM 16.28 4.04 C15.88,4.13 15.56,4.23 15.32,4.34 C16.60,3.74 18.41,3.39 22.85,3.21 C19.41,3.36 17.59,3.61 16.28,4.04 ZM 16.73 138.84 C16.50,138.79 16.31,138.74 16.17,138.68 C14.12,137.92 11.96,136.44 10.06,134.66 C10.08,134.68 10.11,134.70 10.13,134.72 L 10.13 134.72 C10.45,135.02 10.78,135.31 11.12,135.59 C12.57,136.79 14.12,137.80 15.62,138.43 L 15.62 138.43 C16.00,138.59 16.37,138.73 16.73,138.84 ZM 15.14 4.43 C13.77,5.14 12.40,6.07 11.14,7.11 C11.08,7.15 11.03,7.20 10.97,7.24 C12.28,6.14 13.69,5.18 15.11,4.44 C15.12,4.44 15.13,4.43 15.14,4.43 Z" fill="rgb(196,186,234)"/>
<path d="M 0.00 72.00 L 0.00 0.00 L 70.50 0.00 L 141.00 0.00 L 141.00 72.00 L 141.00 144.00 L 70.50 144.00 L 0.00 144.00 L 0.00 72.00 ZM 88.00 137.69 C96.27,135.27 108.93,128.53 114.71,123.47 C123.12,116.12 129.93,105.79 134.20,93.89 C136.25,88.20 136.50,85.69 136.50,71.00 C136.50,52.92 135.87,50.15 128.69,36.50 C123.99,27.58 111.36,15.42 102.00,10.81 C87.63,3.73 87.03,3.64 50.84,3.23 C22.46,2.90 17.78,3.06 15.11,4.44 C10.53,6.81 5.95,11.68 4.92,15.29 C3.91,18.80 3.65,120.25 4.63,126.20 C5.35,130.55 11.11,136.79 16.17,138.68 C21.43,140.66 80.66,139.84 88.00,137.69 ZM 46.19 83.70 C38.34,79.16 38.04,65.58 45.71,62.09 C57.84,56.56 68.14,71.10 59.20,81.11 C56.05,84.63 49.91,85.85 46.19,83.70 ZM 54.78 79.44 C56.60,78.16 57.00,76.93 57.00,72.54 C57.00,67.49 56.83,67.14 53.96,66.14 C49.68,64.64 46.35,66.14 45.51,69.94 C44.67,73.77 46.56,79.73 48.81,80.32 C51.84,81.12 52.52,81.02 54.78,79.44 ZM 69.83 84.33 C67.61,83.74 64.70,79.21 65.39,77.42 C66.21,75.28 68.39,75.71 70.81,78.50 C73.44,81.52 76.54,81.73 78.01,78.98 C78.97,77.18 78.60,76.76 74.46,74.98 C71.92,73.89 69.44,73.00 68.95,73.00 C67.72,73.00 66.00,69.54 66.00,67.07 C66.00,65.93 66.95,64.05 68.12,62.88 C72.13,58.87 82.84,61.66 82.97,66.75 C83.01,68.21 78.33,68.46 77.83,67.03 C77.22,65.24 72.61,65.37 72.23,67.19 C71.97,68.44 72.78,69.06 75.29,69.53 C79.59,70.33 84.00,74.35 84.00,77.45 C84.00,82.48 76.54,86.10 69.83,84.33 ZM 93.20 83.80 C92.46,83.06 92.00,79.42 92.00,74.30 L 92.00 66.00 L 89.00 66.00 C86.45,66.00 86.00,65.62 86.00,63.46 L 86.00 60.92 L 95.25 61.21 C103.74,61.48 104.50,61.66 104.50,63.50 C104.50,65.03 103.73,65.57 101.25,65.81 L 98.00 66.13 L 98.00 74.36 C98.00,81.82 97.10,85.00 95.00,85.00 C94.67,85.00 93.86,84.46 93.20,83.80 ZM 19.71 83.31 C19.44,82.86 19.29,77.78 19.36,72.00 L 19.50 61.50 L 26.94 61.65 C35.31,61.81 37.00,62.98 37.00,68.62 C37.00,72.67 33.13,76.00 28.43,76.00 C25.33,76.00 25.10,76.24 24.81,79.75 C24.57,82.71 24.05,83.56 22.34,83.81 C21.16,83.98 19.97,83.75 19.71,83.31 ZM 30.99 70.51 C33.02,68.07 31.44,66.00 27.53,66.00 C24.50,66.00 24.00,66.33 24.00,68.33 C24.00,69.62 24.30,70.97 24.67,71.33 C25.87,72.53 29.73,72.03 30.99,70.51 ZM 105.36 82.49 C105.01,81.58 106.30,79.31 108.61,76.75 L 112.44 72.51 L 109.48 72.00 C107.73,71.69 106.39,70.77 106.19,69.74 C105.90,68.22 106.74,68.00 112.93,68.00 C117.02,68.00 120.00,68.43 120.00,69.01 C120.00,69.56 118.65,71.88 117.00,74.16 C113.31,79.25 113.29,79.79 116.74,80.18 C118.39,80.37 119.61,81.19 119.81,82.25 C120.11,83.78 119.27,84.00 113.04,84.00 C107.63,84.00 105.80,83.64 105.36,82.49 ZM 69.96 40.45 C68.90,39.17 68.96,38.61 70.30,37.27 C71.82,35.76 72.09,35.78 74.04,37.53 C76.01,39.32 76.03,39.50 74.38,40.71 C72.11,42.37 71.52,42.33 69.96,40.45 ZM 83.34 34.67 L 80.19 31.47 L 83.40 27.96 L 86.61 24.46 L 89.79 27.86 L 92.97 31.27 L 90.23 34.56 C88.73,36.37 87.28,37.86 87.00,37.87 C86.72,37.87 85.08,36.44 83.34,34.67 Z" fill="rgb(252,252,253)"/>
</g>
</svg>