<?xml version="1.0" encoding="utf-8"?>
<!DOCTYPE svg PUBLIC "-//W3C//DTD SVG 20010904//EN" "http://www.w3.org/TR/2001/REC-SVG-20010904/DTD/svg10.dtd">
<svg version="1.0" xmlns="http://www.w3.org/2000/svg" width="433pt" height="91pt" viewBox="0 0 433 91" style="" preserveAspectRatio="xMidYMid meet">
<g fill="#1B1B1BFF">
<path d="M 7.000 48.500 L 7.000 82.000 24.463 82.000 C 39.789 82.000 42.573 81.745 47.213 79.920 C 55.840 76.525 60.584 72.326 64.502 64.616 C 67.708 58.307 68.000 57.000 68.000 48.990 C 68.000 41.935 67.537 39.201 65.598 34.818 C 58.760 19.355 49.316 15.041 22.250 15.015 L 7.000 15.000 7.000 48.500 M 42.975 30.752 C 44.885 31.713 47.773 34.398 49.391 36.718 C 51.998 40.454 52.333 41.773 52.333 48.285 C 52.333 62.382 45.369 69.000 30.533 69.000 L 23.000 69.000 23.000 49.000 L 23.000 29.000 31.250 29.002 C 37.110 29.003 40.506 29.510 42.975 30.752 "/></g>
<g fill="#1B1B1BFF">
<path d="M 292.000 23.524 L 292.000 36.049 287.258 33.524 C 283.786 31.676 280.991 31.000 276.823 31.000 C 269.339 31.000 266.834 32.065 261.563 37.489 C 257.824 41.335 256.901 43.144 255.378 49.605 C 253.669 56.851 253.667 57.503 255.329 63.849 C 257.460 71.983 260.650 76.998 265.683 80.127 C 268.842 82.091 270.794 82.492 277.000 82.452 C 283.352 82.412 285.134 82.000 288.640 79.759 C 292.951 77.005 294.000 77.084 294.000 80.167 C 294.000 81.756 294.864 82.000 300.500 82.000 L 307.000 82.000 307.000 46.500 L 307.000 11.000 299.500 11.000 L 292.000 11.000 292.000 23.524 M 285.988 43.802 C 292.336 46.906 294.642 56.106 291.118 64.263 C 288.834 69.549 286.396 71.000 279.803 71.000 C 276.435 71.000 275.157 70.386 272.368 67.429 C 269.225 64.096 269.000 63.404 269.000 57.064 C 269.000 49.381 270.945 45.803 276.415 43.421 C 280.408 41.683 281.765 41.737 285.988 43.802 "/></g>
<g fill="#1B1B1BFF">
<path d="M 201.849 33.881 C 193.817 38.974 190.608 45.596 190.691 56.898 C 190.753 65.240 192.377 70.282 196.631 75.338 C 201.106 80.657 204.764 82.335 212.072 82.422 C 217.644 82.488 219.277 82.081 222.801 79.750 C 227.931 76.356 229.000 76.313 229.000 79.500 C 229.000 81.929 229.200 82.000 236.000 82.000 L 243.000 82.000 243.000 57.107 C 243.000 29.708 243.310 30.985 236.668 31.014 C 231.107 31.038 229.000 32.027 229.000 34.617 C 229.000 35.927 228.791 37.000 228.535 37.000 C 228.279 37.000 225.941 35.650 223.339 34.000 C 219.413 31.510 217.569 31.000 212.500 31.000 C 207.487 31.000 205.577 31.517 201.849 33.881 M 222.203 44.068 C 231.793 48.529 230.864 67.163 220.902 70.147 C 212.943 72.532 207.186 69.117 204.908 60.659 C 202.612 52.132 208.284 43.000 215.876 43.000 C 218.092 43.000 220.940 43.481 222.203 44.068 "/></g>
<g fill="#1B1B1BFF">
<path d="M 390.994 31.870 C 383.884 34.216 379.644 37.750 376.439 44.000 C 375.084 46.644 374.645 49.824 374.648 57.000 C 374.652 69.733 377.031 74.462 386.500 80.564 C 388.958 82.148 391.308 82.496 399.500 82.490 C 408.600 82.483 409.860 82.246 413.500 79.861 C 419.209 76.120 421.431 73.243 423.331 67.135 C 425.446 60.336 425.453 53.708 423.350 47.428 C 419.703 36.532 413.490 32.034 401.251 31.427 C 396.988 31.215 392.372 31.415 390.994 31.870 M 405.792 42.567 C 412.570 47.314 413.073 63.584 406.664 70.750 C 404.401 73.280 397.944 73.843 393.647 71.885 C 386.330 68.551 385.678 48.545 392.707 43.016 C 395.829 40.560 402.595 40.328 405.792 42.567 "/></g>
<g fill="#1B1B1BFF">
<path d="M 91.500 32.934 C 85.869 35.799 82.618 39.092 79.923 44.659 C 73.421 58.090 78.321 73.398 91.306 80.220 C 97.423 83.433 110.411 83.327 117.750 80.003 C 123.927 77.205 124.399 75.252 120.141 70.117 L 117.335 66.735 114.589 68.534 C 112.731 69.751 109.940 70.333 105.965 70.333 C 101.156 70.333 99.354 69.824 96.044 67.531 C 93.820 65.989 92.000 64.376 92.000 63.946 C 92.000 63.516 91.731 62.462 91.402 61.605 C 90.877 60.236 92.970 60.014 108.652 59.773 L 126.500 59.500 126.362 54.238 C 126.163 46.702 122.266 39.251 116.264 34.930 C 111.926 31.807 110.784 31.473 103.500 31.200 C 97.023 30.956 94.738 31.287 91.500 32.934 M 108.704 44.000 C 109.696 44.000 113.000 48.760 113.000 50.189 C 113.000 51.828 111.949 52.000 101.933 52.000 C 90.922 52.000 90.869 51.988 91.540 49.750 C 92.505 46.531 94.178 45.047 98.526 43.552 C 101.098 42.668 103.349 42.527 105.416 43.119 C 107.105 43.604 108.585 44.000 108.704 44.000 "/></g>
<g fill="#1B1B1BFF">
<path d="M 133.750 31.689 C 132.788 31.941 132.000 32.478 132.000 32.884 C 132.000 33.948 140.832 55.777 143.984 62.500 C 145.015 64.700 147.301 69.988 149.064 74.250 L 152.270 82.000 158.014 82.000 C 163.561 82.000 163.802 81.889 165.052 78.750 C 165.765 76.963 168.229 71.450 170.527 66.500 C 172.826 61.550 175.053 56.375 175.476 55.000 C 175.899 53.625 176.631 52.015 177.103 51.421 C 177.575 50.828 179.126 47.228 180.550 43.421 C 181.973 39.615 183.793 35.488 184.592 34.250 L 186.046 32.000 178.175 32.000 L 170.304 32.000 168.728 35.750 C 167.861 37.813 166.008 43.100 164.610 47.500 C 160.674 59.895 159.257 63.503 158.343 63.463 C 157.426 63.422 148.033 36.524 148.012 33.881 C 147.995 31.608 139.221 30.260 133.750 31.689 "/></g>
<g fill="#1B1B1BFF">
<path d="M 349.636 37.640 C 348.812 43.654 348.816 67.944 349.642 75.853 L 350.285 82.000 356.642 82.000 L 363.000 82.000 363.000 57.500 L 363.000 33.000 356.636 33.000 L 350.272 33.000 349.636 37.640 "/></g>
<g fill="#1B1B1BFF">
<path d="M 321.000 75.500 L 321.000 82.000 328.000 82.000 L 335.000 82.000 335.000 75.500 L 335.000 69.000 328.000 69.000 L 321.000 69.000 321.000 75.500 "/></g>
<g fill="#1B1B1BFF">
<path d="M 349.409 14.507 C 349.063 15.885 349.075 18.585 349.435 20.507 L 350.091 24.000 356.545 24.000 L 363.000 24.000 363.000 18.000 L 363.000 12.000 356.519 12.000 C 350.435 12.000 350.000 12.154 349.409 14.507 "/></g>
</svg>
